<svg width="579" height="417" viewBox="0 0 579 417" fill="none" xmlns="http://www.w3.org/2000/svg">
<mask id="mask0_1_35" style="mask-type:alpha" maskUnits="userSpaceOnUse" x="0" y="0" width="579" height="417">
<path d="M485.055 155.233C491.964 128.24 504.934 101.301 500.426 73.8809C493.984 34.7519 451.854 6.63877 408.816 1.25087C365.808 -4.13704 322.565 8.6659 282.835 24.6162C243.106 40.5666 204.576 59.9844 162.329 69.1065C136.126 74.7611 108.78 76.3882 83.6017 85.1102C58.423 93.8322 34.7375 111.996 31.1071 136.322C27.6816 159.181 42.5546 182.573 36.1136 204.898C31.6927 220.235 18.1079 231.731 9.44175 245.494C-16.0297 285.903 12.8087 345.41 62.7561 355.492C140.254 371.149 211.017 283.769 287.754 302.334C326.429 311.696 350.993 344.957 379.451 370.589C407.792 396.115 444.623 416.066 484.469 416.973C524.316 417.88 566.124 395.662 576.401 360.587C587.116 324.018 562.874 286.97 537.081 257.31C515.386 232.371 490.822 206.792 481.717 176.838C482.127 169.503 483.327 162.168 485.113 155.233H485.055Z" fill="black"/>
</mask>
<g mask="url(#mask0_1_35)">
<rect x="-9" width="611" height="417" fill="#5646CC"/>
</g>
</svg>
