<svg width="30" height="30" viewBox="0 0 30 30" fill="none" xmlns="http://www.w3.org/2000/svg">
<g clip-path="url(#clip0_1_484)">
<path d="M28.8281 13.8281H16.1719V1.17188C16.1719 0.524648 15.6472 0 15 0C14.3528 0 13.8281 0.524648 13.8281 1.17188V13.8281H1.17188C0.524648 13.8281 0 14.3528 0 15C0 15.6472 0.524648 16.1719 1.17188 16.1719H13.8281V28.8281C13.8281 29.4754 14.3528 30 15 30C15.6472 30 16.1719 29.4754 16.1719 28.8281V16.1719H28.8281C29.4754 16.1719 30 15.6472 30 15C30 14.3528 29.4754 13.8281 28.8281 13.8281Z" fill="#1E1E1E"/>
</g>
<defs>
<clipPath id="clip0_1_484">
<rect width="30" height="30" fill="white"/>
</clipPath>
</defs>
</svg>
