<svg width="0" height="0" class="hidden">
  <symbol fill="none" xmlns="http://www.w3.org/2000/svg" viewBox="0 0 20 20" id="arrow-3">
    <path d="M18.9227 9.41089L13.0893 3.57755C12.9322 3.42576 12.7217 3.34176 12.5032 3.34366C12.2847 3.34556 12.0757 3.4332 11.9211 3.58771C11.7666 3.74221 11.679 3.95122 11.6771 4.16972C11.6752 4.38822 11.7592 4.59872 11.911 4.75589L16.3218 9.16672H1.66683C1.44582 9.16672 1.23385 9.25452 1.07757 9.4108C0.921293 9.56708 0.833496 9.77904 0.833496 10.0001C0.833496 10.2211 0.921293 10.433 1.07757 10.5893C1.23385 10.7456 1.44582 10.8334 1.66683 10.8334H16.3218L11.911 15.2442C11.8314 15.3211 11.7679 15.413 11.7242 15.5147C11.6806 15.6164 11.6576 15.7257 11.6566 15.8364C11.6557 15.947 11.6767 16.0568 11.7186 16.1592C11.7605 16.2616 11.8224 16.3546 11.9007 16.4329C11.9789 16.5111 12.072 16.573 12.1744 16.6149C12.2768 16.6568 12.3865 16.6779 12.4972 16.6769C12.6078 16.676 12.7172 16.653 12.8188 16.6093C12.9205 16.5656 13.0125 16.5021 13.0893 16.4226L18.9227 10.5892C19.0789 10.4329 19.1667 10.221 19.1667 10.0001C19.1667 9.77908 19.0789 9.56716 18.9227 9.41089Z" fill="currentColor"></path>
  </symbol>
  <symbol fill="none" xmlns="http://www.w3.org/2000/svg" viewBox="0 0 18 18" id="search">
    <path d="M17.8292 17.0207L13.1819 12.4477C14.3989 11.1255 15.1466 9.37682 15.1466 7.45261C15.1461 3.33639 11.7556 0 7.57302 0C3.39042 0 0 3.33639 0 7.45261C0 11.5688 3.39042 14.9052 7.57302 14.9052C9.3802 14.9052 11.0377 14.2801 12.3397 13.241L17.005 17.832C17.2323 18.056 17.6014 18.056 17.8287 17.832C18.0565 17.6081 18.0565 17.2447 17.8292 17.0207ZM7.57302 13.7586C4.03408 13.7586 1.16522 10.9353 1.16522 7.45261C1.16522 3.96991 4.03408 1.14663 7.57302 1.14663C11.112 1.14663 13.9808 3.96991 13.9808 7.45261C13.9808 10.9353 11.112 13.7586 7.57302 13.7586Z" fill="currentColor"></path>
  </symbol>
  <symbol fill="none" xmlns="http://www.w3.org/2000/svg" viewBox="0 0 20 20" id="star">
    <path d="M19.9479 7.67185C19.8169 7.26687 19.4577 6.97923 19.0328 6.94093L13.2602 6.41678L10.9776 1.07408C10.8093 0.682532 10.426 0.429077 10.0001 0.429077C9.57422 0.429077 9.19091 0.682532 9.0226 1.075L6.73998 6.41678L0.966514 6.94093C0.542309 6.98015 0.184023 7.26687 0.0523365 7.67185C-0.0793503 8.07683 0.0422654 8.52102 0.363166 8.80103L4.72653 12.6277L3.43987 18.2954C3.34573 18.7122 3.50747 19.1429 3.85325 19.3929C4.0391 19.5272 4.25655 19.5955 4.47582 19.5955C4.66488 19.5955 4.85242 19.5446 5.02073 19.4438L10.0001 16.4678L14.9776 19.4438C15.3419 19.663 15.801 19.643 16.146 19.3929C16.492 19.1422 16.6536 18.7113 16.5594 18.2954L15.2728 12.6277L19.6361 8.80179C19.957 8.52102 20.0796 8.07759 19.9479 7.67185Z" fill="currentColor"></path>
  </symbol>
  <symbol fill="none" xmlns="http://www.w3.org/2000/svg" viewBox="0 0 12 12" id="arrow">
    <path d="M5.99997 9.42017C5.7849 9.42017 5.56987 9.33806 5.4059 9.17417L0.24617 4.01439C-0.0820565 3.68616 -0.0820565 3.154 0.24617 2.8259C0.574263 2.49781 1.10632 2.49781 1.43457 2.8259L5.99997 7.39156L10.5654 2.82606C10.8936 2.49797 11.4256 2.49797 11.7537 2.82606C12.0821 3.15416 12.0821 3.68632 11.7537 4.01455L6.59404 9.17433C6.42999 9.33824 6.21495 9.42017 5.99997 9.42017Z" fill="currentColor"></path>
  </symbol>
  <symbol fill="none" xmlns="http://www.w3.org/2000/svg" viewBox="0 0 14 14" id="arrow-2">
    <path d="M13.0979 0H2.51865C2.021 0 1.61631 0.404688 1.61631 0.902344C1.61631 1.4 2.021 1.80469 2.51865 1.80469H10.9159L0.265527 12.4578C-0.087207 12.8105 -0.087207 13.382 0.265527 13.7348C0.618262 14.0875 1.18975 14.0875 1.54248 13.7348L12.1929 3.08164V11.4789C12.1929 11.9766 12.5976 12.3813 13.0952 12.3813C13.5929 12.3813 13.9976 11.9766 13.9976 11.4789V0.902344C14.0003 0.404688 13.5956 0 13.0979 0Z" fill="currentColor"></path>
  </symbol>

  <symbol fill="none" xmlns="http://www.w3.org/2000/svg" viewBox="0 0 30 30" id="minus">
    <path d="M13.8281 13.8281H28.8281C29.4754 13.8281 30 14.3528 30 15C30 15.6472 29.4754 16.1719 28.8281 16.1719H16.1719H1.17188C0.524648 16.1719 0 15.6472 0 15C0 14.3528 0.524648 13.8281 1.17188 13.8281H13.8281Z" fill="currentColor"></path>
  </symbol>
  <symbol fill="none" xmlns="http://www.w3.org/2000/svg" viewBox="0 0 30 30" id="plus">
    <path d="M28.8281 13.8281H16.1719V1.17188C16.1719 0.524648 15.6472 0 15 0C14.3528 0 13.8281 0.524648 13.8281 1.17188V13.8281H1.17188C0.524648 13.8281 0 14.3528 0 15C0 15.6472 0.524648 16.1719 1.17188 16.1719H13.8281V28.8281C13.8281 29.4754 14.3528 30 15 30C15.6472 30 16.1719 29.4754 16.1719 28.8281V16.1719H28.8281C29.4754 16.1719 30 15.6472 30 15C30 14.3528 29.4754 13.8281 28.8281 13.8281Z" fill="currentColor"></path>
  </symbol>
  <symbol xmlns="http://www.w3.org/2000/svg" viewBox="0 0 21 21" id="cross">
    <g fill="none" fill-rule="evenodd" stroke="currentColor" stroke-linecap="round" stroke-linejoin="round" transform="translate(5 5)">
      <path d="m10.5 10.5-10-10z"></path>
      <path d="m10.5.5-10 10"></path>
    </g>
  </symbol>
  <symbol xmlns="http://www.w3.org/2000/svg" viewBox="0 0 28 28" id="burger">
    <path d="M3 7C3 6.44771 3.44772 6 4 6H24C24.5523 6 25 6.44771 25 7C25 7.55229 24.5523 8 24 8H4C3.44772 8 3 7.55229 3 7Z" fill="currentColor"/><path d="M3 14C3 13.4477 3.44772 13 4 13H24C24.5523 13 25 13.4477 25 14C25 14.5523 24.5523 15 24 15H4C3.44772 15 3 14.5523 3 14Z" fill="currentColor"/><path d="M4 20C3.44772 20 3 20.4477 3 21C3 21.5523 3.44772 22 4 22H24C24.5523 22 25 21.5523 25 21C25 20.4477 24.5523 20 24 20H4Z" fill="currentColor"/>
  </symbol>
</svg>