<svg width="516" height="450" viewBox="0 0 516 450" fill="none" xmlns="http://www.w3.org/2000/svg">
<g clip-path="url(#clip0_1_68)">
<mask id="mask0_1_68" style="mask-type:alpha" maskUnits="userSpaceOnUse" x="29" y="-23" width="581" height="417">
<path d="M515.053 132.233C521.975 105.24 534.971 78.301 530.454 50.881C523.999 11.7519 481.788 -16.3612 438.666 -21.7491C395.574 -27.137 352.247 -14.3341 312.44 1.61617C272.634 17.5666 234.029 36.9844 191.7 46.106C165.446 51.761 138.047 53.388 112.82 62.11C87.5926 70.832 63.8611 88.996 60.2236 113.322C56.7915 136.181 71.6934 159.573 65.2399 181.898C60.8104 197.235 47.1992 208.731 38.5163 222.494C12.9953 262.903 41.8897 322.41 91.9341 332.492C169.582 348.149 240.483 260.769 317.369 279.334C356.119 288.696 380.731 321.957 409.244 347.589C437.64 373.115 474.542 393.066 514.466 393.973C554.39 394.88 596.279 372.662 606.576 337.587C617.312 301.018 593.023 263.97 567.18 234.31C545.443 209.371 520.831 183.792 511.708 153.838C512.119 146.503 513.322 139.168 515.111 132.233H515.053Z" fill="black"/>
</mask>
<g mask="url(#mask0_1_68)">
<path d="M632.225 -23H20.0386V394H632.225V-23Z" fill="white" fill-opacity="0.05"/>
</g>
<path d="M409.486 15.2432C366.657 9.8882 323.528 22.6085 283.758 38.5443C273.815 42.528 263.932 46.737 254.034 50.951C224.412 63.564 194.667 76.229 162.856 83.084C153.339 85.134 143.66 86.658 134.021 88.176C130.332 88.757 126.65 89.336 122.983 89.945C109.712 92.146 96.6233 94.723 84.092 99.055C58.9883 107.734 35.7125 125.702 32.1585 149.47C30.5978 159.865 32.8998 170.388 35.2399 181.085C35.423 181.922 35.6063 182.76 35.788 183.599C38.2737 195.076 40.452 206.74 37.1465 218.175C34.877 226.033 30.2681 232.865 25.2098 239.397C23.7209 241.32 22.198 243.212 20.6804 245.097C17.0029 249.665 13.3572 254.193 10.3077 259.027C-2.23154 278.881 -1.43704 303.485 8.73371 324.43C18.9037 345.373 38.3979 362.54 63.0764 367.512C101.111 375.182 137.56 357.893 174.289 340.471L175.451 339.919C212.421 322.386 249.701 304.982 288.548 314.362C308.146 319.096 324.13 329.867 338.749 342.607C346.056 348.975 353.038 355.85 359.959 362.718C360.439 363.194 360.918 363.669 361.396 364.145C367.839 370.541 374.244 376.9 380.858 382.846C409.144 408.273 445.826 428.074 485.433 428.973C505.21 429.423 525.479 424.142 542.068 414.411C558.657 404.68 571.5 390.54 576.558 373.306C581.838 355.324 578.525 337.174 570.627 319.77C562.725 302.359 550.264 285.767 537.367 270.966C535.057 268.315 532.71 265.653 530.351 262.976C521.64 253.094 512.757 243.017 504.857 232.556C494.814 219.255 486.303 205.264 481.694 190.129L481.642 189.959L481.652 189.782C482.042 182.817 483.139 175.856 484.771 169.233H484.706L485.026 167.985C486.764 161.207 488.882 154.437 491.003 147.691L491.162 147.185C493.232 140.6 495.295 134.036 497.018 127.464C500.553 113.982 502.634 100.551 500.409 87.043C497.235 67.796 485.253 51.194 468.651 38.7118C452.049 26.2303 430.883 17.9168 409.486 15.2432ZM409.486 15.2432L409.586 14.446" stroke="#5646CC" stroke-opacity="0.4" stroke-width="2"/>
</g>
<defs>
<clipPath id="clip0_1_68">
<rect width="516" height="450" fill="white"/>
</clipPath>
</defs>
</svg>
