<svg width="489" height="361" viewBox="0 0 489 361" fill="none" xmlns="http://www.w3.org/2000/svg">
<mask id="mask0_1_209" style="mask-type:alpha" maskUnits="userSpaceOnUse" x="23" y="0" width="466" height="333">
<path d="M413.472 123.637C419.027 102.138 429.454 80.6823 425.83 58.8433C420.651 27.6785 386.78 5.28752 352.18 0.996266C317.603 -3.29499 282.838 6.90202 250.897 19.6058C218.957 32.3097 187.98 47.7752 154.016 55.0402C132.95 59.5442 110.965 60.84 90.7229 67.7868C70.4801 74.7335 51.4381 89.2004 48.5194 108.575C45.7655 126.781 57.7227 145.412 52.5444 163.193C48.9902 175.409 38.0686 184.565 31.1015 195.526C10.6236 227.711 33.8083 275.106 73.9637 283.135C136.268 295.606 193.159 226.011 254.852 240.797C285.945 248.254 305.693 274.745 328.572 295.16C351.357 315.49 380.967 331.38 413.001 332.103C445.036 332.825 478.648 315.129 486.91 287.193C495.525 258.068 476.035 228.56 455.299 204.937C437.857 185.074 418.109 164.702 410.789 140.845C411.118 135.002 412.083 129.16 413.519 123.637H413.472Z" fill="black"/>
</mask>
<g mask="url(#mask0_1_209)">
<path d="M507.491 0H16.2749V332.124H507.491V0Z" fill="#5646CC" fill-opacity="0.1"/>
</g>
<path d="M328.766 30.4592C294.4 26.1941 259.794 36.3253 227.882 49.0176C219.904 52.1904 211.974 55.5427 204.032 58.899C180.263 68.9448 156.396 79.032 130.871 84.4917C123.235 86.1244 115.469 87.3382 107.734 88.5473C104.774 89.01 101.819 89.4712 98.8774 89.9562C88.2282 91.7092 77.7262 93.7617 67.6711 97.212C47.528 104.124 28.8516 118.435 25.9999 137.366C24.7476 145.645 26.5947 154.026 28.4724 162.546C28.6193 163.212 28.7664 163.88 28.9122 164.548C30.9067 173.689 32.6545 182.979 30.0022 192.086C28.1812 198.345 24.4831 203.786 20.4243 208.989C19.2296 210.52 18.0076 212.027 16.7899 213.529C13.8391 217.167 10.9138 220.773 8.46693 224.623C-1.59454 240.436 -0.957038 260.032 7.20393 276.714C15.3643 293.395 31.0063 307.067 50.8083 311.027C81.3271 317.136 110.573 303.366 140.045 289.49L140.977 289.051C170.642 275.086 200.555 261.225 231.726 268.696C247.451 272.466 260.277 281.045 272.006 291.192C277.87 296.263 283.472 301.739 289.025 307.209C289.41 307.588 289.795 307.967 290.179 308.346C295.348 313.44 300.488 318.505 305.795 323.24C328.491 343.492 357.925 359.263 389.705 359.979C405.574 360.337 421.838 356.131 435.149 348.381C448.46 340.63 458.765 329.368 462.824 315.642C467.06 301.32 464.402 286.864 458.065 273.003C451.724 259.136 441.726 245.921 431.377 234.132C429.523 232.021 427.641 229.901 425.747 227.769C418.758 219.898 411.63 211.872 405.291 203.54C397.233 192.947 390.404 181.803 386.705 169.749L386.664 169.613L386.672 169.472C386.985 163.925 387.865 158.381 389.174 153.106H389.122L389.379 152.112C390.774 146.714 392.473 141.322 394.174 135.949L394.302 135.546C395.963 130.301 397.619 125.073 399.001 119.839C401.838 109.101 403.508 98.4035 401.722 87.6449C399.175 72.3154 389.561 59.0926 376.24 49.151C362.918 39.2099 345.935 32.5886 328.766 30.4592ZM328.766 30.4592L328.846 29.8242" stroke="#5646CC" stroke-opacity="0.3" stroke-width="2"/>
</svg>
