<svg width="20" height="20" viewBox="0 0 20 20" fill="none" xmlns="http://www.w3.org/2000/svg">
<path d="M18.9227 9.41089L13.0893 3.57755C12.9322 3.42576 12.7217 3.34176 12.5032 3.34366C12.2847 3.34556 12.0757 3.4332 11.9211 3.58771C11.7666 3.74221 11.679 3.95122 11.6771 4.16972C11.6752 4.38822 11.7592 4.59872 11.911 4.75589L16.3218 9.16672H1.66683C1.44582 9.16672 1.23385 9.25452 1.07757 9.4108C0.921293 9.56708 0.833496 9.77904 0.833496 10.0001C0.833496 10.2211 0.921293 10.433 1.07757 10.5893C1.23385 10.7456 1.44582 10.8334 1.66683 10.8334H16.3218L11.911 15.2442C11.8314 15.3211 11.7679 15.413 11.7242 15.5147C11.6806 15.6164 11.6576 15.7257 11.6566 15.8364C11.6557 15.947 11.6767 16.0568 11.7186 16.1592C11.7605 16.2616 11.8224 16.3546 11.9007 16.4329C11.9789 16.5111 12.072 16.573 12.1744 16.6149C12.2768 16.6568 12.3865 16.6779 12.4972 16.6769C12.6078 16.676 12.7172 16.653 12.8188 16.6093C12.9205 16.5656 13.0125 16.5021 13.0893 16.4226L18.9227 10.5892C19.0789 10.4329 19.1667 10.221 19.1667 10.0001C19.1667 9.77908 19.0789 9.56716 18.9227 9.41089Z" fill="#5646CC"/>
</svg>
