<svg width="18" height="18" viewBox="0 0 18 18" fill="none" xmlns="http://www.w3.org/2000/svg">
<g clip-path="url(#clip0_1_27)">
<path d="M17.8292 17.0207L13.1819 12.4477C14.3989 11.1255 15.1466 9.37682 15.1466 7.45261C15.1461 3.33639 11.7556 0 7.57302 0C3.39042 0 0 3.33639 0 7.45261C0 11.5688 3.39042 14.9052 7.57302 14.9052C9.3802 14.9052 11.0377 14.2801 12.3397 13.241L17.005 17.832C17.2323 18.056 17.6014 18.056 17.8287 17.832C18.0565 17.6081 18.0565 17.2447 17.8292 17.0207ZM7.57302 13.7586C4.03408 13.7586 1.16522 10.9353 1.16522 7.45261C1.16522 3.96991 4.03408 1.14663 7.57302 1.14663C11.112 1.14663 13.9808 3.96991 13.9808 7.45261C13.9808 10.9353 11.112 13.7586 7.57302 13.7586Z" fill="#1E1E1E"/>
</g>
<defs>
<clipPath id="clip0_1_27">
<rect width="18" height="18" fill="white"/>
</clipPath>
</defs>
</svg>
